# xmcd
#
# Track frame offsets: 
#        150
#        14121
#        26257
#        42199
#        61527
#        74722
#        87465
#        99360
#        118326
#        132886
#        145443
#        161136
#
# Disc length: 2335 seconds
#
# Revision: 0
# Processed by: cddbd v1.5.2PL0 Copyright (c) Steve Scherf et al.
# Submitted via: ExactAudioCopyFreeDBPlugin 1.0
#
DISCID=ab091d0c
DTITLE=蔡幸娟 - 中國娃娃回想曲之二
DYEAR=1900
DGENRE=
TTITLE0=春風吻上了我的臉
TTITLE1=南屏晚鐘
TTITLE2=藍與黑
TTITLE3=秋的懷念
TTITLE4=落花流水
TTITLE5=重逢
TTITLE6=今宵多珍重
TTITLE7=花戒指
TTITLE8=第二春
TTITLE9=晚霞
TTITLE10=真善美
TTITLE11=天上人間
EXTD=
EXTT0=
EXTT1=
EXTT2=
EXTT3=
EXTT4=
EXTT5=
EXTT6=
EXTT7=
EXTT8=
EXTT9=
EXTT10=
EXTT11=
PLAYORDER=
